<?xml version="1.0" standalone="no"?>
<!DOCTYPE svg PUBLIC "-//W3C//DTD SVG 20010904//EN"
 "http://www.w3.org/TR/2001/REC-SVG-20010904/DTD/svg10.dtd">
<svg version="1.0" xmlns="http://www.w3.org/2000/svg"
 width="512.000000pt" height="512.000000pt" viewBox="0 0 512.000000 512.000000"
 preserveAspectRatio="xMidYMid meet">
<metadata>
Created by potrace 1.14, written by Peter Selinger 2001-2017
</metadata>
<g transform="translate(0.000000,512.000000) scale(0.100000,-0.100000)"
fill="#000000" stroke="none">
<path d="M4445 5059 c-51 -67 -152 -148 -240 -191 -136 -68 -287 -108 -585
-158 -402 -66 -528 -98 -678 -172 -81 -39 -118 -65 -171 -117 -81 -81 -101
-108 -139 -198 -103 -243 -87 -548 40 -754 l28 -47 -49 -71 c-56 -81 -109
-200 -142 -316 -13 -44 -24 -81 -25 -83 -1 -2 -40 36 -87 84 l-85 88 20 46
c54 124 74 262 58 415 -19 188 -72 314 -177 418 -108 109 -259 172 -545 227
-432 83 -525 107 -638 166 -95 50 -159 102 -213 173 l-47 62 -21 -48 c-58
-136 -95 -318 -105 -519 -16 -315 73 -662 231 -899 110 -164 230 -273 390
-351 140 -68 223 -87 395 -87 132 -1 152 1 225 26 89 29 176 78 247 138 26 21
49 39 51 39 3 0 36 -37 74 -82 80 -95 150 -207 158 -252 3 -17 2 -103 -2 -191
l-8 -160 -585 -5 c-568 -5 -586 -6 -620 -26 -19 -11 -45 -38 -57 -60 -20 -34
-23 -54 -23 -152 0 -94 3 -119 20 -153 22 -41 66 -76 111 -85 26 -6 28 -11 63
-193 19 -102 88 -474 152 -826 87 -483 121 -648 136 -674 12 -19 39 -41 62
-52 39 -18 84 -19 899 -19 945 0 901 -3 951 63 25 32 38 98 171 833 80 440
148 813 151 831 5 26 12 32 40 37 18 4 47 18 64 33 53 44 60 69 60 206 0 136
-10 164 -73 211 -28 21 -38 21 -618 24 l-589 2 0 73 c1 134 20 431 36 535 18
124 45 214 90 304 l33 66 82 -48 c161 -97 265 -125 469 -124 131 0 172 4 265
26 219 52 387 146 545 307 147 148 244 310 314 521 120 361 115 738 -14 1091
-46 129 -48 130 -95 68z"/>
</g>
</svg>
